<?xml version="1.0" encoding="UTF-8"?>
<svg width="24px" height="24px" viewBox="0 0 24 24" version="1.1" xmlns="http://www.w3.org/2000/svg">
    <path fill="#2e7d32" d="M17.5,12c-1.4,0-2.5,1.1-2.5,2.5s1.1,2.5,2.5,2.5s2.5-1.1,2.5-2.5S18.9,12,17.5,12z M17.5,16
        c-0.8,0-1.5-0.7-1.5-1.5s0.7-1.5,1.5-1.5s1.5,0.7,1.5,1.5S18.3,16,17.5,16z M21.9,10.4c-0.1-0.3-0.3-0.6-0.5-0.8l-6.9-6.9
        C14.3,2.5,14,2.3,13.6,2.2C13.3,2.1,12.9,2,12.5,2h-7C4.1,2,3,3.1,3,4.5v15C3,20.9,4.1,22,5.5,22h13c1.4,0,2.5-1.1,2.5-2.5v-8
        C22,11,22,10.7,21.9,10.4z M14,4.4l5.6,5.6H14V4.4z M20,19.5c0,0.8-0.7,1.5-1.5,1.5h-13C4.7,21,4,20.3,4,19.5v-15
        C4,3.7,4.7,3,5.5,3h7C12.8,3,13,3.2,13,3.5v7c0,0.6,0.4,1,1,1h5.5c0.3,0,0.5,0.2,0.5,0.5V19.5z"/>
</svg>
